<svg xmlns="http://www.w3.org/2000/svg" xmlns:xlink="http://www.w3.org/1999/xlink" id="iteblogSvg1000" viewBox="124.5 73.5 627.0 214.0" width="627.0" height="214.0"><defs id="iteblogDefs1001"/><g id="iteblogG1002"><path id="iteblogPath1003" d="M124.5 73.5H751.5V287.5H124.5V73.5Z" fill="none"/><g id="iteblogG1004"><g id="iteblogG1005" transform="matrix(1.0,0.0,0.0,1.0,293.5,126.5)" opacity="1.0"><path id="iteblogPath1006" d="M0.0 0.0L63.0 0.0L63.0 34.0L0.0 34.0Z" stroke="#323232" stroke-width="2.0" stroke-dasharray="none" opacity="1.0" fill="#d9eaf5"/><g id="iteblogG1007" transform="matrix(1.0,0.0,0.0,1.0,10.0,8.875)"><text id="iteblogText1008" fill="#000000" font-size="13" x="20.5" y="13.325" font-family="Arial" font-weight="bold" font-style="normal" text-decoration="none" family="Arial" text-anchor="middle" size="13">Magic</text></g></g><g id="iteblogG1009" transform="matrix(1.0,0.0,0.0,1.0,356.5,126.5)" opacity="1.0"><path id="iteblogPath1010" d="M0.0 0.0L89.0 0.0L89.0 34.0L0.0 34.0Z" stroke="#323232" stroke-width="2.0" stroke-dasharray="none" opacity="1.0" fill="#d9eaf5"/><g id="iteblogG1011" transform="matrix(1.0,0.0,0.0,1.0,10.0,8.875)"><text id="iteblogText1012" fill="#000000" font-size="13" x="33.5" y="13.325" font-family="Arial" font-weight="bold" font-style="normal" text-decoration="none" family="Arial" text-anchor="middle" size="13">Attributes</text></g></g><g id="iteblogG1013" transform="matrix(1.0,0.0,0.0,1.0,445.5,126.5)" opacity="1.0"><path id="iteblogPath1014" d="M0.0 0.0L63.0 0.0L63.0 34.0L0.0 34.0Z" stroke="#323232" stroke-width="2.0" stroke-dasharray="none" opacity="1.0" fill="#d9eaf5"/><g id="iteblogG1015" transform="matrix(1.0,0.0,0.0,1.0,10.0,8.875)"><text id="iteblogText1016" fill="#000000" font-size="13" x="20.5" y="13.325" font-family="Arial" font-weight="bold" font-style="normal" text-decoration="none" family="Arial" text-anchor="middle" size="13">Crc</text></g></g><g id="iteblogG1017" transform="matrix(1.0,0.0,0.0,1.0,508.5,126.5)" opacity="1.0"><path id="iteblogPath1018" d="M0.0 0.0L63.0 0.0L63.0 34.0L0.0 34.0Z" stroke="#323232" stroke-width="2.0" stroke-dasharray="none" opacity="1.0" fill="#d9eaf5"/><g id="iteblogG1019" transform="matrix(1.0,0.0,0.0,1.0,10.0,8.875)"><text id="iteblogText1020" fill="#000000" font-size="13" x="20.5" y="13.325" font-family="Arial" font-weight="bold" font-style="normal" text-decoration="none" family="Arial" text-anchor="middle" size="13">Value</text></g></g><g id="iteblogG1021" transform="matrix(1.0,0.0,0.0,1.0,337.5,93.5)" opacity="1.0"><path id="iteblogPath1022" d="M0.0 0.0L201.0 0.0L201.0 33.0L0.0 33.0Z" stroke="none" stroke-width="0.0" stroke-dasharray="none" opacity="1.0" fill="none"/><g id="iteblogG1023" transform="matrix(1.0,0.0,0.0,1.0,0.0,8.375)"><text id="iteblogText1024" fill="#000000" font-size="13" x="99.5" y="13.325" font-family="微软雅黑" font-weight="bold" font-style="normal" text-decoration="none" family="微软雅黑" text-anchor="middle" size="13">Message Format(Kafka 0.7.x)</text></g></g><g id="iteblogG1025" transform="matrix(1.0,0.0,0.0,1.0,170.5,200.5)" opacity="1.0"><path id="iteblogPath1026" d="M0.0 0.0L63.0 0.0L63.0 34.0L0.0 34.0Z" stroke="#323232" stroke-width="2.0" stroke-dasharray="none" opacity="1.0" fill="#d9eaf5"/><g id="iteblogG1027" transform="matrix(1.0,0.0,0.0,1.0,10.0,8.875)"><text id="iteblogText1028" fill="#000000" font-size="13" x="20.5" y="13.325" font-family="Arial" font-weight="bold" font-style="normal" text-decoration="none" family="Arial" text-anchor="middle" size="13">Offset</text></g></g><g id="iteblogG1029" transform="matrix(1.0,0.0,0.0,1.0,233.5,200.5)" opacity="1.0"><path id="iteblogPath1030" d="M0.0 0.0L63.0 0.0L63.0 34.0L0.0 34.0Z" stroke="#323232" stroke-width="2.0" stroke-dasharray="none" opacity="1.0" fill="#d9eaf5"/><g id="iteblogG1031" transform="matrix(1.0,0.0,0.0,1.0,10.0,8.875)"><text id="iteblogText1032" fill="#000000" font-size="13" x="20.5" y="13.325" font-family="Arial" font-weight="bold" font-style="normal" text-decoration="none" family="Arial" text-anchor="middle" size="13">Size</text></g></g><g id="iteblogG1033" transform="matrix(1.0,0.0,0.0,1.0,296.5,200.5)" opacity="1.0"><path id="iteblogPath1034" d="M0.0 0.0L123.0 0.0L123.0 34.0L0.0 34.0Z" stroke="#323232" stroke-width="2.0" stroke-dasharray="none" opacity="1.0" fill="#d9eaf5"/><g id="iteblogG1035" transform="matrix(1.0,0.0,0.0,1.0,10.0,8.875)"><text id="iteblogText1036" fill="#000000" font-size="13" x="50.5" y="13.325" font-family="Arial" font-weight="bold" font-style="normal" text-decoration="none" family="Arial" text-anchor="middle" size="13">Message</text></g></g><g id="iteblogG1037" transform="matrix(1.0,0.0,0.0,1.0,358.0,171.5)" opacity="1.0"><path id="iteblogPath1038" d="M0.0 0.0L160.0 0.0L160.0 29.0L0.0 29.0Z" stroke="none" stroke-width="0.0" stroke-dasharray="none" opacity="1.0" fill="none"/><g id="iteblogG1039" transform="matrix(1.0,0.0,0.0,1.0,0.0,6.375)"><text id="iteblogText1040" fill="#000000" font-size="13" x="79.0" y="13.325" font-family="微软雅黑" font-weight="bold" font-style="normal" text-decoration="none" family="微软雅黑" text-anchor="middle" size="13">MessageSet Format</text></g></g><g id="iteblogG1041" transform="matrix(1.0,0.0,0.0,1.0,144.5,246.0)" opacity="1.0"><path id="iteblogPath1042" d="M0.0 0.0L587.0 0.0L587.0 21.5L0.0 21.5Z" stroke="none" stroke-width="0.0" stroke-dasharray="none" opacity="1.0" fill="none"/><g id="iteblogG1043" transform="matrix(1.0,0.0,0.0,1.0,0.0,2.625)"><text id="iteblogText1044" fill="#000000" font-size="13" x="292.5" y="13.325" font-family="Comic Sans MS" font-weight="bold" font-style="normal" text-decoration="none" family="Comic Sans MS" text-anchor="middle" size="13">如果想及时了解Spark、Hadoop或者Hbase相关的文章，欢迎关注微信公共帐号：iteblog_hadoop</text></g></g><g id="iteblogG1045" transform="matrix(1.0,0.0,0.0,1.0,465.5,200.5)" opacity="1.0"><path id="iteblogPath1046" d="M0.0 0.0L63.0 0.0L63.0 34.0L0.0 34.0Z" stroke="#323232" stroke-width="2.0" stroke-dasharray="none" opacity="1.0" fill="#d9eaf5"/><g id="iteblogG1047" transform="matrix(1.0,0.0,0.0,1.0,10.0,8.875)"><text id="iteblogText1048" fill="#000000" font-size="13" x="20.5" y="13.325" font-family="Arial" font-weight="bold" font-style="normal" text-decoration="none" family="Arial" text-anchor="middle" size="13">Offset</text></g></g><g id="iteblogG1049" transform="matrix(1.0,0.0,0.0,1.0,528.5,200.5)" opacity="1.0"><path id="iteblogPath1050" d="M0.0 0.0L63.0 0.0L63.0 34.0L0.0 34.0Z" stroke="#323232" stroke-width="2.0" stroke-dasharray="none" opacity="1.0" fill="#d9eaf5"/><g id="iteblogG1051" transform="matrix(1.0,0.0,0.0,1.0,10.0,8.875)"><text id="iteblogText1052" fill="#000000" font-size="13" x="20.5" y="13.325" font-family="Arial" font-weight="bold" font-style="normal" text-decoration="none" family="Arial" text-anchor="middle" size="13">Size</text></g></g><g id="iteblogG1053" transform="matrix(1.0,0.0,0.0,1.0,591.5,200.5)" opacity="1.0"><path id="iteblogPath1054" d="M0.0 0.0L123.0 0.0L123.0 34.0L0.0 34.0Z" stroke="#323232" stroke-width="2.0" stroke-dasharray="none" opacity="1.0" fill="#d9eaf5"/><g id="iteblogG1055" transform="matrix(1.0,0.0,0.0,1.0,10.0,8.875)"><text id="iteblogText1056" fill="#000000" font-size="13" x="50.5" y="13.325" font-family="Arial" font-weight="bold" font-style="normal" text-decoration="none" family="Arial" text-anchor="middle" size="13">Message</text></g></g><g id="iteblogG1057" transform="matrix(1.0,0.0,0.0,1.0,419.5,200.5)" opacity="1.0"><path id="iteblogPath1058" d="M0.0 0.0L46.0 0.0L46.0 34.0L0.0 34.0Z" stroke="#323232" stroke-width="2.0" stroke-dasharray="none" opacity="1.0" fill="#d9eaf5"/><g id="iteblogG1059" transform="matrix(1.0,0.0,0.0,1.0,10.0,8.875)"><text id="iteblogText1060" fill="#000000" font-size="13" x="12.0" y="13.325" font-family="Arial" font-weight="bold" font-style="normal" text-decoration="none" family="Arial" text-anchor="middle" size="13">...</text></g></g></g></g></svg>