<svg xmlns="http://www.w3.org/2000/svg" xmlns:xlink="http://www.w3.org/1999/xlink" id="processonSvg1000" viewBox="217.5 877.0 528.5 192.0" width="528.5" height="192.0"><defs id="ProcessOnDefs1001"/><g id="ProcessOnG1002"><path id="ProcessOnPath1003" d="M217.5 877.0H746.0V1069.0H217.5V877.0Z" fill="none"/><g id="ProcessOnG1004"><g id="ProcessOnG1005" transform="matrix(1.0,0.0,0.0,1.0,455.5,930.0)" opacity="1.0"><path id="ProcessOnPath1006" d="M0.0 0.0L270.5 0.0L270.5 119.0L0.0 119.0Z" stroke="#323232" stroke-width="2.0" stroke-dasharray="none" opacity="1.0" fill="#d9eaf5"/></g><g id="ProcessOnG1007" transform="matrix(1.0,0.0,0.0,1.0,466.0,938.5)" opacity="1.0"><path id="ProcessOnPath1008" d="M0.0 0.0L63.0 0.0L63.0 34.0L0.0 34.0Z" stroke="#323232" stroke-width="2.0" stroke-dasharray="none" opacity="1.0" fill="#b2d4eb"/><g id="ProcessOnG1009" transform="matrix(1.0,0.0,0.0,1.0,10.0,8.875)"><text id="ProcessOnText1010" fill="#000000" font-size="13" x="20.5" y="13.325" font-family="Arial" font-weight="bold" font-style="normal" text-decoration="none" family="Arial" text-anchor="middle" size="13">Offset</text></g></g><g id="ProcessOnG1011" transform="matrix(1.0,0.0,0.0,1.0,529.0,938.5)" opacity="1.0"><path id="ProcessOnPath1012" d="M0.0 0.0L63.0 0.0L63.0 34.0L0.0 34.0Z" stroke="#323232" stroke-width="2.0" stroke-dasharray="none" opacity="1.0" fill="#b2d4eb"/><g id="ProcessOnG1013" transform="matrix(1.0,0.0,0.0,1.0,10.0,8.875)"><text id="ProcessOnText1014" fill="#000000" font-size="13" x="20.5" y="13.325" font-family="Arial" font-weight="bold" font-style="normal" text-decoration="none" family="Arial" text-anchor="middle" size="13">Size</text></g></g><g id="ProcessOnG1015" transform="matrix(1.0,0.0,0.0,1.0,592.0,938.5)" opacity="1.0"><path id="ProcessOnPath1016" d="M0.0 0.0L123.0 0.0L123.0 34.0L0.0 34.0Z" stroke="#323232" stroke-width="2.0" stroke-dasharray="none" opacity="1.0" fill="#b2d4eb"/><g id="ProcessOnG1017" transform="matrix(1.0,0.0,0.0,1.0,10.0,8.875)"><text id="ProcessOnText1018" fill="#000000" font-size="13" x="50.5" y="13.325" font-family="Arial" font-weight="bold" font-style="normal" text-decoration="none" family="Arial" text-anchor="middle" size="13">Message</text></g></g><g id="ProcessOnG1019" transform="matrix(1.0,0.0,0.0,1.0,466.0,972.5)" opacity="1.0"><path id="ProcessOnPath1020" d="M0.0 0.0L63.0 0.0L63.0 34.0L0.0 34.0Z" stroke="#323232" stroke-width="2.0" stroke-dasharray="none" opacity="1.0" fill="#b2d4eb"/><g id="ProcessOnG1021" transform="matrix(1.0,0.0,0.0,1.0,10.0,8.875)"><text id="ProcessOnText1022" fill="#000000" font-size="13" x="20.5" y="13.325" font-family="Arial" font-weight="bold" font-style="normal" text-decoration="none" family="Arial" text-anchor="middle" size="13">Offset</text></g></g><g id="ProcessOnG1023" transform="matrix(1.0,0.0,0.0,1.0,529.0,972.5)" opacity="1.0"><path id="ProcessOnPath1024" d="M0.0 0.0L63.0 0.0L63.0 34.0L0.0 34.0Z" stroke="#323232" stroke-width="2.0" stroke-dasharray="none" opacity="1.0" fill="#b2d4eb"/><g id="ProcessOnG1025" transform="matrix(1.0,0.0,0.0,1.0,10.0,8.875)"><text id="ProcessOnText1026" fill="#000000" font-size="13" x="20.5" y="13.325" font-family="Arial" font-weight="bold" font-style="normal" text-decoration="none" family="Arial" text-anchor="middle" size="13">Size</text></g></g><g id="ProcessOnG1027" transform="matrix(1.0,0.0,0.0,1.0,592.0,972.5)" opacity="1.0"><path id="ProcessOnPath1028" d="M0.0 0.0L123.0 0.0L123.0 34.0L0.0 34.0Z" stroke="#323232" stroke-width="2.0" stroke-dasharray="none" opacity="1.0" fill="#b2d4eb"/><g id="ProcessOnG1029" transform="matrix(1.0,0.0,0.0,1.0,10.0,8.875)"><text id="ProcessOnText1030" fill="#000000" font-size="13" x="50.5" y="13.325" font-family="Arial" font-weight="bold" font-style="normal" text-decoration="none" family="Arial" text-anchor="middle" size="13">Message</text></g></g><g id="ProcessOnG1031" transform="matrix(1.0,0.0,0.0,1.0,466.0,1006.5)" opacity="1.0"><path id="ProcessOnPath1032" d="M0.0 0.0L63.0 0.0L63.0 34.0L0.0 34.0Z" stroke="#323232" stroke-width="2.0" stroke-dasharray="none" opacity="1.0" fill="#b2d4eb"/><g id="ProcessOnG1033" transform="matrix(1.0,0.0,0.0,1.0,10.0,8.875)"><text id="ProcessOnText1034" fill="#000000" font-size="13" x="20.5" y="13.325" font-family="Arial" font-weight="bold" font-style="normal" text-decoration="none" family="Arial" text-anchor="middle" size="13">Offset</text></g></g><g id="ProcessOnG1035" transform="matrix(1.0,0.0,0.0,1.0,529.0,1006.5)" opacity="1.0"><path id="ProcessOnPath1036" d="M0.0 0.0L63.0 0.0L63.0 34.0L0.0 34.0Z" stroke="#323232" stroke-width="2.0" stroke-dasharray="none" opacity="1.0" fill="#b2d4eb"/><g id="ProcessOnG1037" transform="matrix(1.0,0.0,0.0,1.0,10.0,8.875)"><text id="ProcessOnText1038" fill="#000000" font-size="13" x="20.5" y="13.325" font-family="Arial" font-weight="bold" font-style="normal" text-decoration="none" family="Arial" text-anchor="middle" size="13">Size</text></g></g><g id="ProcessOnG1039" transform="matrix(1.0,0.0,0.0,1.0,592.0,1006.5)" opacity="1.0"><path id="ProcessOnPath1040" d="M0.0 0.0L123.0 0.0L123.0 34.0L0.0 34.0Z" stroke="#323232" stroke-width="2.0" stroke-dasharray="none" opacity="1.0" fill="#b2d4eb"/><g id="ProcessOnG1041" transform="matrix(1.0,0.0,0.0,1.0,10.0,8.875)"><text id="ProcessOnText1042" fill="#000000" font-size="13" x="50.5" y="13.325" font-family="Arial" font-weight="bold" font-style="normal" text-decoration="none" family="Arial" text-anchor="middle" size="13">Message</text></g></g><g id="ProcessOnG1043" transform="matrix(1.0,0.0,0.0,1.0,389.5,930.0)" opacity="1.0"><path id="ProcessOnPath1044" d="M0.0 0.0L66.0 0.0L66.0 119.0L0.0 119.0Z" stroke="#323232" stroke-width="2.0" stroke-dasharray="none" opacity="1.0" fill="#d9eaf5"/><g id="ProcessOnG1045" transform="matrix(1.0,0.0,0.0,1.0,10.0,51.375)"><text id="ProcessOnText1046" fill="#000000" font-size="13" x="22.0" y="13.325" font-family="Arial" font-weight="bold" font-style="normal" text-decoration="none" family="Arial" text-anchor="middle" size="13">Crc</text></g></g><g id="ProcessOnG1047" transform="matrix(1.0,0.0,0.0,1.0,237.5,930.0)" opacity="1.0"><path id="ProcessOnPath1048" d="M0.0 0.0L63.0 0.0L63.0 119.0L0.0 119.0Z" stroke="#323232" stroke-width="2.0" stroke-dasharray="none" opacity="1.0" fill="#d9eaf5"/><g id="ProcessOnG1049" transform="matrix(1.0,0.0,0.0,1.0,10.0,51.375)"><text id="ProcessOnText1050" fill="#000000" font-size="13" x="20.5" y="13.325" font-family="Arial" font-weight="bold" font-style="normal" text-decoration="none" family="Arial" text-anchor="middle" size="13">Magic</text></g></g><g id="ProcessOnG1051" transform="matrix(1.0,0.0,0.0,1.0,300.5,930.0)" opacity="1.0"><path id="ProcessOnPath1052" d="M0.0 0.0L89.0 0.0L89.0 119.0L0.0 119.0Z" stroke="#323232" stroke-width="2.0" stroke-dasharray="none" opacity="1.0" fill="#d9eaf5"/><g id="ProcessOnG1053" transform="matrix(1.0,0.0,0.0,1.0,10.0,51.375)"><text id="ProcessOnText1054" fill="#000000" font-size="13" x="33.5" y="13.325" font-family="Arial" font-weight="bold" font-style="normal" text-decoration="none" family="Arial" text-anchor="middle" size="13">Attributes</text></g></g><g id="ProcessOnG1055" transform="matrix(1.0,0.0,0.0,1.0,330.75,897.0)" opacity="1.0"><path id="ProcessOnPath1056" d="M0.0 0.0L292.5 0.0L292.5 33.0L0.0 33.0Z" stroke="none" stroke-width="0.0" stroke-dasharray="none" opacity="1.0" fill="none"/><g id="ProcessOnG1057" transform="matrix(1.0,0.0,0.0,1.0,0.0,8.375)"><text id="ProcessOnText1058" fill="#000000" font-size="13" x="145.25" y="13.325" font-family="微软雅黑" font-weight="bold" font-style="normal" text-decoration="none" family="微软雅黑" text-anchor="middle" size="13">Compressed Message Format(Kafka 0.7.x)</text></g></g></g></g></svg>