<svg xmlns="http://www.w3.org/2000/svg" xmlns:xlink="http://www.w3.org/1999/xlink" id="processonSvg1000" viewBox="96.0 687.0 732.5 192.0" width="732.5" height="192.0"><defs id="ProcessOnDefs1001"/><g id="ProcessOnG1002"><path id="ProcessOnPath1003" d="M96.0 687.0H828.5V879.0H96.0V687.0Z" fill="none"/><g id="ProcessOnG1004"><g id="ProcessOnG1005" transform="matrix(1.0,0.0,0.0,1.0,538.0,740.0)" opacity="1.0"><path id="ProcessOnPath1006" d="M0.0 0.0L270.5 0.0L270.5 119.0L0.0 119.0Z" stroke="#323232" stroke-width="2.0" stroke-dasharray="none" opacity="1.0" fill="#d9eaf5"/></g><g id="ProcessOnG1007" transform="matrix(1.0,0.0,0.0,1.0,548.5,748.5)" opacity="1.0"><path id="ProcessOnPath1008" d="M0.0 0.0L63.0 0.0L63.0 34.0L0.0 34.0Z" stroke="#323232" stroke-width="2.0" stroke-dasharray="none" opacity="1.0" fill="#b2d4eb"/><g id="ProcessOnG1009" transform="matrix(1.0,0.0,0.0,1.0,10.0,8.875)"><text id="ProcessOnText1010" fill="#000000" font-size="13" x="20.5" y="13.325" font-family="Arial" font-weight="bold" font-style="normal" text-decoration="none" family="Arial" text-anchor="middle" size="13">Offset</text></g></g><g id="ProcessOnG1011" transform="matrix(1.0,0.0,0.0,1.0,611.5,748.5)" opacity="1.0"><path id="ProcessOnPath1012" d="M0.0 0.0L63.0 0.0L63.0 34.0L0.0 34.0Z" stroke="#323232" stroke-width="2.0" stroke-dasharray="none" opacity="1.0" fill="#b2d4eb"/><g id="ProcessOnG1013" transform="matrix(1.0,0.0,0.0,1.0,10.0,8.875)"><text id="ProcessOnText1014" fill="#000000" font-size="13" x="20.5" y="13.325" font-family="Arial" font-weight="bold" font-style="normal" text-decoration="none" family="Arial" text-anchor="middle" size="13">Size</text></g></g><g id="ProcessOnG1015" transform="matrix(1.0,0.0,0.0,1.0,674.5,748.5)" opacity="1.0"><path id="ProcessOnPath1016" d="M0.0 0.0L123.0 0.0L123.0 34.0L0.0 34.0Z" stroke="#323232" stroke-width="2.0" stroke-dasharray="none" opacity="1.0" fill="#b2d4eb"/><g id="ProcessOnG1017" transform="matrix(1.0,0.0,0.0,1.0,10.0,8.875)"><text id="ProcessOnText1018" fill="#000000" font-size="13" x="50.5" y="13.325" font-family="Arial" font-weight="bold" font-style="normal" text-decoration="none" family="Arial" text-anchor="middle" size="13">Message</text></g></g><g id="ProcessOnG1019" transform="matrix(1.0,0.0,0.0,1.0,548.5,782.5)" opacity="1.0"><path id="ProcessOnPath1020" d="M0.0 0.0L63.0 0.0L63.0 34.0L0.0 34.0Z" stroke="#323232" stroke-width="2.0" stroke-dasharray="none" opacity="1.0" fill="#b2d4eb"/><g id="ProcessOnG1021" transform="matrix(1.0,0.0,0.0,1.0,10.0,8.875)"><text id="ProcessOnText1022" fill="#000000" font-size="13" x="20.5" y="13.325" font-family="Arial" font-weight="bold" font-style="normal" text-decoration="none" family="Arial" text-anchor="middle" size="13">Offset</text></g></g><g id="ProcessOnG1023" transform="matrix(1.0,0.0,0.0,1.0,611.5,782.5)" opacity="1.0"><path id="ProcessOnPath1024" d="M0.0 0.0L63.0 0.0L63.0 34.0L0.0 34.0Z" stroke="#323232" stroke-width="2.0" stroke-dasharray="none" opacity="1.0" fill="#b2d4eb"/><g id="ProcessOnG1025" transform="matrix(1.0,0.0,0.0,1.0,10.0,8.875)"><text id="ProcessOnText1026" fill="#000000" font-size="13" x="20.5" y="13.325" font-family="Arial" font-weight="bold" font-style="normal" text-decoration="none" family="Arial" text-anchor="middle" size="13">Size</text></g></g><g id="ProcessOnG1027" transform="matrix(1.0,0.0,0.0,1.0,674.5,782.5)" opacity="1.0"><path id="ProcessOnPath1028" d="M0.0 0.0L123.0 0.0L123.0 34.0L0.0 34.0Z" stroke="#323232" stroke-width="2.0" stroke-dasharray="none" opacity="1.0" fill="#b2d4eb"/><g id="ProcessOnG1029" transform="matrix(1.0,0.0,0.0,1.0,10.0,8.875)"><text id="ProcessOnText1030" fill="#000000" font-size="13" x="50.5" y="13.325" font-family="Arial" font-weight="bold" font-style="normal" text-decoration="none" family="Arial" text-anchor="middle" size="13">Message</text></g></g><g id="ProcessOnG1031" transform="matrix(1.0,0.0,0.0,1.0,548.5,816.5)" opacity="1.0"><path id="ProcessOnPath1032" d="M0.0 0.0L63.0 0.0L63.0 34.0L0.0 34.0Z" stroke="#323232" stroke-width="2.0" stroke-dasharray="none" opacity="1.0" fill="#b2d4eb"/><g id="ProcessOnG1033" transform="matrix(1.0,0.0,0.0,1.0,10.0,8.875)"><text id="ProcessOnText1034" fill="#000000" font-size="13" x="20.5" y="13.325" font-family="Arial" font-weight="bold" font-style="normal" text-decoration="none" family="Arial" text-anchor="middle" size="13">Offset</text></g></g><g id="ProcessOnG1035" transform="matrix(1.0,0.0,0.0,1.0,611.5,816.5)" opacity="1.0"><path id="ProcessOnPath1036" d="M0.0 0.0L63.0 0.0L63.0 34.0L0.0 34.0Z" stroke="#323232" stroke-width="2.0" stroke-dasharray="none" opacity="1.0" fill="#b2d4eb"/><g id="ProcessOnG1037" transform="matrix(1.0,0.0,0.0,1.0,10.0,8.875)"><text id="ProcessOnText1038" fill="#000000" font-size="13" x="20.5" y="13.325" font-family="Arial" font-weight="bold" font-style="normal" text-decoration="none" family="Arial" text-anchor="middle" size="13">Size</text></g></g><g id="ProcessOnG1039" transform="matrix(1.0,0.0,0.0,1.0,674.5,816.5)" opacity="1.0"><path id="ProcessOnPath1040" d="M0.0 0.0L123.0 0.0L123.0 34.0L0.0 34.0Z" stroke="#323232" stroke-width="2.0" stroke-dasharray="none" opacity="1.0" fill="#b2d4eb"/><g id="ProcessOnG1041" transform="matrix(1.0,0.0,0.0,1.0,10.0,8.875)"><text id="ProcessOnText1042" fill="#000000" font-size="13" x="50.5" y="13.325" font-family="Arial" font-weight="bold" font-style="normal" text-decoration="none" family="Arial" text-anchor="middle" size="13">Message</text></g></g><g id="ProcessOnG1043" transform="matrix(1.0,0.0,0.0,1.0,116.0,740.0)" opacity="1.0"><path id="ProcessOnPath1044" d="M0.0 0.0L66.0 0.0L66.0 119.0L0.0 119.0Z" stroke="#323232" stroke-width="2.0" stroke-dasharray="none" opacity="1.0" fill="#d9eaf5"/><g id="ProcessOnG1045" transform="matrix(1.0,0.0,0.0,1.0,10.0,51.375)"><text id="ProcessOnText1046" fill="#000000" font-size="13" x="22.0" y="13.325" font-family="Arial" font-weight="bold" font-style="normal" text-decoration="none" family="Arial" text-anchor="middle" size="13">Crc</text></g></g><g id="ProcessOnG1047" transform="matrix(1.0,0.0,0.0,1.0,182.0,740.0)" opacity="1.0"><path id="ProcessOnPath1048" d="M0.0 0.0L63.0 0.0L63.0 119.0L0.0 119.0Z" stroke="#323232" stroke-width="2.0" stroke-dasharray="none" opacity="1.0" fill="#d9eaf5"/><g id="ProcessOnG1049" transform="matrix(1.0,0.0,0.0,1.0,10.0,51.375)"><text id="ProcessOnText1050" fill="#000000" font-size="13" x="20.5" y="13.325" font-family="Arial" font-weight="bold" font-style="normal" text-decoration="none" family="Arial" text-anchor="middle" size="13">Magic</text></g></g><g id="ProcessOnG1051" transform="matrix(1.0,0.0,0.0,1.0,245.0,740.0)" opacity="1.0"><path id="ProcessOnPath1052" d="M0.0 0.0L89.0 0.0L89.0 119.0L0.0 119.0Z" stroke="#323232" stroke-width="2.0" stroke-dasharray="none" opacity="1.0" fill="#d9eaf5"/><g id="ProcessOnG1053" transform="matrix(1.0,0.0,0.0,1.0,10.0,51.375)"><text id="ProcessOnText1054" fill="#000000" font-size="13" x="33.5" y="13.325" font-family="Arial" font-weight="bold" font-style="normal" text-decoration="none" family="Arial" text-anchor="middle" size="13">Attributes</text></g></g><g id="ProcessOnG1055" transform="matrix(1.0,0.0,0.0,1.0,334.0,740.0)" opacity="1.0"><path id="ProcessOnPath1056" d="M0.0 0.0L100.0 0.0L100.0 119.0L0.0 119.0Z" stroke="#323232" stroke-width="2.0" stroke-dasharray="none" opacity="1.0" fill="#d9eaf5"/><g id="ProcessOnG1057" transform="matrix(1.0,0.0,0.0,1.0,10.0,51.375)"><text id="ProcessOnText1058" fill="#000000" font-size="13" x="39.0" y="13.325" font-family="Arial" font-weight="bold" font-style="normal" text-decoration="none" family="Arial" text-anchor="middle" size="13">Key length</text></g></g><g id="ProcessOnG1059" transform="matrix(1.0,0.0,0.0,1.0,434.0,740.0)" opacity="1.0"><path id="ProcessOnPath1060" d="M0.0 0.0L104.0 0.0L104.0 119.0L0.0 119.0Z" stroke="#323232" stroke-width="2.0" stroke-dasharray="none" opacity="1.0" fill="#d9eaf5"/><g id="ProcessOnG1061" transform="matrix(1.0,0.0,0.0,1.0,10.0,51.375)"><text id="ProcessOnText1062" fill="#000000" font-size="13" x="41.0" y="13.325" font-family="Arial" font-weight="bold" font-style="normal" text-decoration="none" family="Arial" text-anchor="middle" size="13">Value length</text></g></g><g id="ProcessOnG1063" transform="matrix(1.0,0.0,0.0,1.0,318.5,707.0)" opacity="1.0"><path id="ProcessOnPath1064" d="M0.0 0.0L292.5 0.0L292.5 33.0L0.0 33.0Z" stroke="none" stroke-width="0.0" stroke-dasharray="none" opacity="1.0" fill="none"/><g id="ProcessOnG1065" transform="matrix(1.0,0.0,0.0,1.0,0.0,8.375)"><text id="ProcessOnText1066" fill="#000000" font-size="13" x="145.25" y="13.325" font-family="微软雅黑" font-weight="bold" font-style="normal" text-decoration="none" family="微软雅黑" text-anchor="middle" size="13">Compressed Message Format(Kafka 0.8.x)</text></g></g></g></g></svg>