<svg xmlns="http://www.w3.org/2000/svg" xmlns:xlink="http://www.w3.org/1999/xlink" id="processonSvg1000" viewBox="81.0 498.5 673.0 216.0" width="673.0" height="216.0"><defs id="ProcessOnDefs1001"/><g id="ProcessOnG1002"><path id="ProcessOnPath1003" d="M81.0 498.5H754.0V714.5H81.0V498.5Z" fill="none"/><g id="ProcessOnG1004"><g id="ProcessOnG1005" transform="matrix(1.0,0.0,0.0,1.0,101.0,551.5)" opacity="1.0"><path id="ProcessOnPath1006" d="M0.0 0.0L63.0 0.0L63.0 34.0L0.0 34.0Z" stroke="#323232" stroke-width="2.0" stroke-dasharray="none" opacity="1.0" fill="#d9eaf5"/><g id="ProcessOnG1007" transform="matrix(1.0,0.0,0.0,1.0,10.0,8.875)"><text id="ProcessOnText1008" fill="#000000" font-size="13" x="20.5" y="13.325" font-family="Arial" font-weight="bold" font-style="normal" text-decoration="none" family="Arial" text-anchor="middle" size="13">Crc</text></g></g><g id="ProcessOnG1009" transform="matrix(1.0,0.0,0.0,1.0,164.0,551.5)" opacity="1.0"><path id="ProcessOnPath1010" d="M0.0 0.0L63.0 0.0L63.0 34.0L0.0 34.0Z" stroke="#323232" stroke-width="2.0" stroke-dasharray="none" opacity="1.0" fill="#d9eaf5"/><g id="ProcessOnG1011" transform="matrix(1.0,0.0,0.0,1.0,10.0,8.875)"><text id="ProcessOnText1012" fill="#000000" font-size="13" x="20.5" y="13.325" font-family="Arial" font-weight="bold" font-style="normal" text-decoration="none" family="Arial" text-anchor="middle" size="13">Magic</text></g></g><g id="ProcessOnG1013" transform="matrix(1.0,0.0,0.0,1.0,227.0,551.5)" opacity="1.0"><path id="ProcessOnPath1014" d="M0.0 0.0L89.0 0.0L89.0 34.0L0.0 34.0Z" stroke="#323232" stroke-width="2.0" stroke-dasharray="none" opacity="1.0" fill="#d9eaf5"/><g id="ProcessOnG1015" transform="matrix(1.0,0.0,0.0,1.0,10.0,8.875)"><text id="ProcessOnText1016" fill="#000000" font-size="13" x="33.5" y="13.325" font-family="Arial" font-weight="bold" font-style="normal" text-decoration="none" family="Arial" text-anchor="middle" size="13">Attributes</text></g></g><g id="ProcessOnG1017" transform="matrix(1.0,0.0,0.0,1.0,405.0,551.5)" opacity="1.0"><path id="ProcessOnPath1018" d="M0.0 0.0L100.0 0.0L100.0 34.0L0.0 34.0Z" stroke="#323232" stroke-width="2.0" stroke-dasharray="none" opacity="1.0" fill="#d9eaf5"/><g id="ProcessOnG1019" transform="matrix(1.0,0.0,0.0,1.0,10.0,8.875)"><text id="ProcessOnText1020" fill="#000000" font-size="13" x="39.0" y="13.325" font-family="Arial" font-weight="bold" font-style="normal" text-decoration="none" family="Arial" text-anchor="middle" size="13">Key length</text></g></g><g id="ProcessOnG1021" transform="matrix(1.0,0.0,0.0,1.0,505.0,551.5)" opacity="1.0"><path id="ProcessOnPath1022" d="M0.0 0.0L63.0 0.0L63.0 34.0L0.0 34.0Z" stroke="#323232" stroke-width="2.0" stroke-dasharray="none" opacity="1.0" fill="#d9eaf5"/><g id="ProcessOnG1023" transform="matrix(1.0,0.0,0.0,1.0,10.0,8.875)"><text id="ProcessOnText1024" fill="#000000" font-size="13" x="20.5" y="13.325" font-family="Arial" font-weight="bold" font-style="normal" text-decoration="none" family="Arial" text-anchor="middle" size="13">Key</text></g></g><g id="ProcessOnG1025" transform="matrix(1.0,0.0,0.0,1.0,568.0,551.5)" opacity="1.0"><path id="ProcessOnPath1026" d="M0.0 0.0L103.0 0.0L103.0 34.0L0.0 34.0Z" stroke="#323232" stroke-width="2.0" stroke-dasharray="none" opacity="1.0" fill="#d9eaf5"/><g id="ProcessOnG1027" transform="matrix(1.0,0.0,0.0,1.0,10.0,8.875)"><text id="ProcessOnText1028" fill="#000000" font-size="13" x="40.5" y="13.325" font-family="Arial" font-weight="bold" font-style="normal" text-decoration="none" family="Arial" text-anchor="middle" size="13">Value length</text></g></g><g id="ProcessOnG1029" transform="matrix(1.0,0.0,0.0,1.0,671.0,551.5)" opacity="1.0"><path id="ProcessOnPath1030" d="M0.0 0.0L63.0 0.0L63.0 34.0L0.0 34.0Z" stroke="#323232" stroke-width="2.0" stroke-dasharray="none" opacity="1.0" fill="#d9eaf5"/><g id="ProcessOnG1031" transform="matrix(1.0,0.0,0.0,1.0,10.0,8.875)"><text id="ProcessOnText1032" fill="#000000" font-size="13" x="20.5" y="13.325" font-family="Arial" font-weight="bold" font-style="normal" text-decoration="none" family="Arial" text-anchor="middle" size="13">Value</text></g></g><g id="ProcessOnG1033" transform="matrix(1.0,0.0,0.0,1.0,318.5,518.5)" opacity="1.0"><path id="ProcessOnPath1034" d="M0.0 0.0L201.0 0.0L201.0 33.0L0.0 33.0Z" stroke="none" stroke-width="0.0" stroke-dasharray="none" opacity="1.0" fill="none"/><g id="ProcessOnG1035" transform="matrix(1.0,0.0,0.0,1.0,0.0,8.375)"><text id="ProcessOnText1036" fill="#000000" font-size="13" x="99.5" y="13.325" font-family="微软雅黑" font-weight="bold" font-style="normal" text-decoration="none" family="微软雅黑" text-anchor="middle" size="13">Message Format(Kafka 0.10.x)</text></g></g><g id="ProcessOnG1037" transform="matrix(1.0,0.0,0.0,1.0,123.5,673.0)" opacity="1.0"><path id="ProcessOnPath1038" d="M0.0 0.0L587.0 0.0L587.0 21.5L0.0 21.5Z" stroke="none" stroke-width="0.0" stroke-dasharray="none" opacity="1.0" fill="none"/><g id="ProcessOnG1039" transform="matrix(1.0,0.0,0.0,1.0,0.0,2.625)"><text id="ProcessOnText1040" fill="#000000" font-size="13" x="292.5" y="13.325" font-family="Comic Sans MS" font-weight="bold" font-style="normal" text-decoration="none" family="Comic Sans MS" text-anchor="middle" size="13">如果想及时了解Spark、Hadoop或者Hbase相关的文章，欢迎关注微信公共帐号：iteblog_hadoop</text></g></g><g id="ProcessOnG1041" transform="matrix(1.0,0.0,0.0,1.0,316.0,551.5)" opacity="1.0"><path id="ProcessOnPath1042" d="M0.0 0.0L89.0 0.0L89.0 34.0L0.0 34.0Z" stroke="#323232" stroke-width="2.0" stroke-dasharray="none" opacity="1.0" fill="#d9eaf5"/><g id="ProcessOnG1043" transform="matrix(1.0,0.0,0.0,1.0,10.0,8.875)"><text id="ProcessOnText1044" fill="#000000" font-size="13" x="33.5" y="13.325" font-family="Arial" font-weight="bold" font-style="normal" text-decoration="none" family="Arial" text-anchor="middle" size="13">Timestamp</text></g></g><g id="ProcessOnG1045" transform="matrix(1.0,0.0,0.0,1.0,101.0,625.5)" opacity="1.0"><path id="ProcessOnPath1046" d="M0.0 0.0L63.0 0.0L63.0 34.0L0.0 34.0Z" stroke="#323232" stroke-width="2.0" stroke-dasharray="none" opacity="1.0" fill="#d9eaf5"/><g id="ProcessOnG1047" transform="matrix(1.0,0.0,0.0,1.0,10.0,8.875)"><text id="ProcessOnText1048" fill="#000000" font-size="13" x="20.5" y="13.325" font-family="Arial" font-weight="bold" font-style="normal" text-decoration="none" family="Arial" text-anchor="middle" size="13">Offset</text></g></g><g id="ProcessOnG1049" transform="matrix(1.0,0.0,0.0,1.0,164.0,625.5)" opacity="1.0"><path id="ProcessOnPath1050" d="M0.0 0.0L63.0 0.0L63.0 34.0L0.0 34.0Z" stroke="#323232" stroke-width="2.0" stroke-dasharray="none" opacity="1.0" fill="#d9eaf5"/><g id="ProcessOnG1051" transform="matrix(1.0,0.0,0.0,1.0,10.0,8.875)"><text id="ProcessOnText1052" fill="#000000" font-size="13" x="20.5" y="13.325" font-family="Arial" font-weight="bold" font-style="normal" text-decoration="none" family="Arial" text-anchor="middle" size="13">Size</text></g></g><g id="ProcessOnG1053" transform="matrix(1.0,0.0,0.0,1.0,227.0,625.5)" opacity="1.0"><path id="ProcessOnPath1054" d="M0.0 0.0L169.0 0.0L169.0 34.0L0.0 34.0Z" stroke="#323232" stroke-width="2.0" stroke-dasharray="none" opacity="1.0" fill="#d9eaf5"/><g id="ProcessOnG1055" transform="matrix(1.0,0.0,0.0,1.0,10.0,8.875)"><text id="ProcessOnText1056" fill="#000000" font-size="13" x="73.5" y="13.325" font-family="Arial" font-weight="bold" font-style="normal" text-decoration="none" family="Arial" text-anchor="middle" size="13">Message</text></g></g><g id="ProcessOnG1057" transform="matrix(1.0,0.0,0.0,1.0,343.0,595.5)" opacity="1.0"><path id="ProcessOnPath1058" d="M0.0 0.0L156.0 0.0L156.0 30.0L0.0 30.0Z" stroke="none" stroke-width="0.0" stroke-dasharray="none" opacity="1.0" fill="none"/><g id="ProcessOnG1059" transform="matrix(1.0,0.0,0.0,1.0,0.0,6.875)"><text id="ProcessOnText1060" fill="#000000" font-size="13" x="77.0" y="13.325" font-family="微软雅黑" font-weight="bold" font-style="normal" text-decoration="none" family="微软雅黑" text-anchor="middle" size="13">MessageSet Format</text></g></g><g id="ProcessOnG1061" transform="matrix(1.0,0.0,0.0,1.0,396.0,625.5)" opacity="1.0"><path id="ProcessOnPath1062" d="M0.0 0.0L46.0 0.0L46.0 34.0L0.0 34.0Z" stroke="#323232" stroke-width="2.0" stroke-dasharray="none" opacity="1.0" fill="#d9eaf5"/><g id="ProcessOnG1063" transform="matrix(1.0,0.0,0.0,1.0,10.0,8.875)"><text id="ProcessOnText1064" fill="#000000" font-size="13" x="12.0" y="13.325" font-family="Arial" font-weight="bold" font-style="normal" text-decoration="none" family="Arial" text-anchor="middle" size="13">...</text></g></g><g id="ProcessOnG1065" transform="matrix(1.0,0.0,0.0,1.0,442.0,625.5)" opacity="1.0"><path id="ProcessOnPath1066" d="M0.0 0.0L63.0 0.0L63.0 34.0L0.0 34.0Z" stroke="#323232" stroke-width="2.0" stroke-dasharray="none" opacity="1.0" fill="#d9eaf5"/><g id="ProcessOnG1067" transform="matrix(1.0,0.0,0.0,1.0,10.0,8.875)"><text id="ProcessOnText1068" fill="#000000" font-size="13" x="20.5" y="13.325" font-family="Arial" font-weight="bold" font-style="normal" text-decoration="none" family="Arial" text-anchor="middle" size="13">Offset</text></g></g><g id="ProcessOnG1069" transform="matrix(1.0,0.0,0.0,1.0,505.0,625.5)" opacity="1.0"><path id="ProcessOnPath1070" d="M0.0 0.0L63.0 0.0L63.0 34.0L0.0 34.0Z" stroke="#323232" stroke-width="2.0" stroke-dasharray="none" opacity="1.0" fill="#d9eaf5"/><g id="ProcessOnG1071" transform="matrix(1.0,0.0,0.0,1.0,10.0,8.875)"><text id="ProcessOnText1072" fill="#000000" font-size="13" x="20.5" y="13.325" font-family="Arial" font-weight="bold" font-style="normal" text-decoration="none" family="Arial" text-anchor="middle" size="13">Size</text></g></g><g id="ProcessOnG1073" transform="matrix(1.0,0.0,0.0,1.0,567.0,625.5)" opacity="1.0"><path id="ProcessOnPath1074" d="M0.0 0.0L167.0 0.0L167.0 34.0L0.0 34.0Z" stroke="#323232" stroke-width="2.0" stroke-dasharray="none" opacity="1.0" fill="#d9eaf5"/><g id="ProcessOnG1075" transform="matrix(1.0,0.0,0.0,1.0,10.0,8.875)"><text id="ProcessOnText1076" fill="#000000" font-size="13" x="72.5" y="13.325" font-family="Arial" font-weight="bold" font-style="normal" text-decoration="none" family="Arial" text-anchor="middle" size="13">Message</text></g></g></g></g></svg>